{
.appVersion = "1352";
DisplayStrings = (
HHHHHH,
"nnnnqnnn\012ooooqooo\012nnnbqnnnn\012oooobooo\012nnnnvnnnnn\012bnbnbnbnn\012oooovooooo\012llll\012HPiIvTE\012/space HHHIHHH\012OOOIOOOI\012HHHEHHHH\012nlino/space bilililiililililililililliininininininininio/space \012Ilnobo\012Pilno\012Olno\012FrwL\012aBgN\012dcCfU\012nnmm\012VGp",
CD,
ncnn,
GO,
PO,
NH,
ge,
"HBHCHDHEHFHGHHHIHLHNHOHPHQHTHUHVH\012OBOCODOEOFOGOHOIOLONOOOPOQOTOUOVO\012\012HHHHBHHHOOOBOOOO\012HHHHCHHHOOOCOOOO\012HHHHDHHHOOODOOOO\012HHHHEHHHOOOEOOOO\012HHHHFHHHOOOFOOOO\012HHHHGHHHOOOGOOOO\012HHHHHHHHOOOHOOOO\012HHHHIHHHOOOIOOOO\012HHHHLHHHOOOLOOOO\012HHHHNHHHOOONOOOO\012HHHHOHHHOOOOOOOO\012HHHHPHHHOOOPOOOO\012HHHHQHHHOOOQOOOO\012HHHHTHHHOOOTOOOO\012HHHHUHHHOOOUOOOO\012HHHHVHHHOOOVOOOO\012\012nanbncndnenfngnhninlnmnnnononpnqnrnvnwn\012oaobocodoeofogohoiolomonooooopoqorovowo\012\012nnnnannnoooaoooo\012nnnnbnnnoooboooo\012nnnncnnnooocoooo\012nnnndnnnooodoooo\012nnnnennnoooeoooo\012nnnnfnnnooofoooo\012nnnngnnnooogoooo\012nnnnhnnnooohoooo\012nnnninnnoooioooo\012nnnnlnnnoooloooo\012nnnnmnnnooomoooo\012nnnnnnnnooonoooo\012nnnnonnnoooooooo\012nnnnonnnoooooooo\012nnnnpnnnooopoooo\012nnnnqnnnoooqoooo\012nnnnrnnnoooroooo\012nnnnvnnnooovoooo\012nnnnwnnnooowoooo",
noondal,
"Hnamnlbourngnnefontsivn\012HAMBURGEFONTSIV",
vw,
bdnpq,
h,
n,
"/acutecomb",
"/acutecomb o/acutecomb ó",
OOOHHnnGnie,
P,
BO,
"/B.ss01",
lin,
"n/tildecomb/tildecomb ñ",
"/tildecomb",
"/tildecomb n/tildecomb n/tildecomb ñ",
OQia,
D,
EFHInTUV,
BCDEFGCHILNHnOHHOOPQTUV,
"/tildecomb nñ",
"/acutecomb ó"
);
copyright = "Copyright © 2021 by Anonimas team. All rights reserved.";
customParameters = (
{
name = openTypeGaspRangeRecords;
value = (
{
rangeGaspBehavior = (
0,
1,
2,
3
);
rangeMaxPPEM = 65535;
}
);
},
{
name = openTypeHeadFlags;
value = (
);
},
{
name = preferredFamilyName;
value = anonimassegundopartido;
},
{
name = versionString;
value = "Version 1.000";
},
{
name = openTypeOS2Selection;
value = (
);
},
{
name = fsType;
value = (
2
);
},
{

glyphs = (
{
color = 9;
glyphname = B;
lastChange = "2021-09-01 09:32:31 +0000";
layers = (
{
guideLines = (
{
position = "{321, 419}";
}
);
layerId = "6366B642-BFD9-498E-A5DF-39975F9AC1A1";
paths = (
{
closed = 1;
nodes = (
"197 0 LINE",
"197 730 LINE",
"73 730 LINE",
"73 0 LINE"
);
},
{
closed = 1;
nodes = (
"489 409 LINE",
"570 412 OFFCURVE",
"594 464 OFFCURVE",
"594 551 CURVE SMOOTH",
"594 676 OFFCURVE",
"532 730 OFFCURVE",
"430 730 CURVE SMOOTH",
"153 730 LINE",
"153 611 LINE",
"470 611 LINE",
"470 524 LINE SMOOTH",
"470 452 OFFCURVE",
"448 419 OFFCURVE",
"333 419 CURVE SMOOTH",
"124 419 LINE",
"124 313 LINE",
"487 312 LINE",
"487 222 LINE SMOOTH",
"487 155 OFFCURVE",
"465 119 OFFCURVE",
"353 119 CURVE SMOOTH",
"144 119 LINE",
"144 0 LINE",
"376 0 LINE SMOOTH",
"552 0 OFFCURVE",
"611 74 OFFCURVE",
"611 220 CURVE SMOOTH",
"611 329 OFFCURVE",
"569 394 OFFCURVE",
"489 394 CURVE"
);
}
);
userData = {
com.schriftgestaltung.Glyphs.lastChange = "2021-08-31 11:45:45 +0000";
};
width = 659;
}
);
leftMetricsKey = H;
unicode = 0042;
},
{
color = 4;
glyphname = C;
lastChange = "2021-09-01 09:32:44 +0000";
layers = (
{
background = {
components = (
{
name = G;
transform = "{1, 0, 0, 1, -23, 0}";
}
);
paths = (
{
closed = 0;
nodes = (
"346 -12 LINE SMOOTH",
"161 -12 OFFCURVE",
"30 111 OFFCURVE",
"30 343 CURVE SMOOTH"
);
}
);
};
layerId = "6366B642-BFD9-498E-A5DF-39975F9AC1A1";
paths = (
{
closed = 1;
nodes = (
"526 1 OFFCURVE",
"415 -10 OFFCURVE",
"362 -10 CURVE SMOOTH",
"326 -10 LINE SMOOTH",
"92 -10 OFFCURVE",
"65 111 OFFCURVE",
"65 322 CURVE",
"65 407 LINE",
"65 619 OFFCURVE",
"187 740 OFFCURVE",
"382 740 CURVE SMOOTH",
"522 740 OFFCURVE",
"624 652 OFFCURVE",
"624 521 CURVE",
"494 521 LINE",
"494 603 LINE",
"303 603 LINE SMOOTH",
"226 603 OFFCURVE",
"196 551 OFFCURVE",
"196 487 CURVE SMOOTH",
"196 128 LINE",
"576 128 LINE",
"576 23 LINE"
);
}
);
userData = {
com.schriftgestaltung.Glyphs.lastChange = "2021-08-31 11:45:58 +0000";
};
width = 669;
}
);
leftMetricsKey = O;
unicode = 0043;
},
{
color = 5;
glyphname = D;
lastChange = "2021-09-01 09:44:06 +0000";
layers = (
{
layerId = "6366B642-BFD9-498E-A5DF-39975F9AC1A1";
paths = (
{
closed = 1;
nodes = (
"391 0 LINE SMOOTH",
"557 0 OFFCURVE",
"596 85 OFFCURVE",
"596 244 CURVE SMOOTH",
"596 486 LINE SMOOTH",
"596 645 OFFCURVE",
"557 730 OFFCURVE",
"391 730 CURVE SMOOTH",
"73 730 LINE",
"73 0 LINE"
);
},
{
closed = 1;
nodes = (
"465 171 OFFCURVE",
"435 119 OFFCURVE",
"358 119 CURVE SMOOTH",
"192 119 LINE",
"192 611 LINE",
"465 611 LINE",
"465 235 LINE SMOOTH"
);
}
);
userData = {
com.schriftgestaltung.Glyphs.lastChange = "2021-08-31 11:47:14 +0000";
};
width = 662;
}
);
leftMetricsKey = H;
rightMetricsKey = O;
unicode = 0044;
},
{
color = 4;
glyphname = E;
lastChange = "2021-09-01 09:41:20 +0000";
layers = (
{
layerId = "6366B642-BFD9-498E-A5DF-39975F9AC1A1";
paths = (
{
closed = 1;
nodes = (
"197 730 LINE",
"73 730 LINE",
"73 0 LINE",
"197 0 LINE"
);
},
{
closed = 1;
nodes = (
"252 119 LINE SMOOTH",
"213 119 OFFCURVE",
"197 135 OFFCURVE",
"197 174 CURVE",
"197 0 LINE",
"574 0 LINE",
"574 119 LINE"
);
},
{
closed = 1;
nodes = (
"507 313 LINE",
"507 429 LINE",
"194 429 LINE",
"194 313 LINE"
);
},
{
closed = 1;
nodes = (
"574 611 LINE",
"574 730 LINE",
"197 730 LINE",
"197 611 LINE"
);
}
);
userData = {
com.schriftgestaltung.Glyphs.lastChange = "2021-08-31 11:45:58 +0000";
};
width = 625;
}
);
leftMetricsKey = H;
unicode = 0045;
},
{
color = 4;
glyphname = F;
lastChange = "2021-09-01 09:41:17 +0000";
layers = (
{
layerId = "6366B642-BFD9-498E-A5DF-39975F9AC1A1";
paths = (
{
closed = 1;
nodes = (
"73 730 LINE",
"73 0 LINE",
"197 0 LINE",
"197 730 LINE"
);
},
{
closed = 1;
nodes = (
"584 730 LINE",
"197 730 LINE",
"197 611 LINE",
"584 611 LINE"
);
},
{
closed = 1;
nodes = (
"194 289 LINE",
"517 289 LINE",
"517 406 LINE",
"252 406 LINE SMOOTH",
"213 406 OFFCURVE",
"197 422 OFFCURVE",
"197 461 CURVE"
);
}
);
userData = {
com.schriftgestaltung.Glyphs.lastChange = "2021-08-31 11:45:58 +0000";
};
width = 625;
}
);
leftMetricsKey = H;
unicode = 0046;
},
{
color = 9;
glyphname = G;
lastChange = "2021-09-01 09:41:24 +0000";
layers = (
{
background = {
components = (
{
name = O;
transform = "{1, 0, 0, 1, 3, 0}";
}
);
};
layerId = "6366B642-BFD9-498E-A5DF-39975F9AC1A1";
paths = (
{
closed = 1;
nodes = (
"65 118 OFFCURVE",
"132 -13 OFFCURVE",
"351 -10 CURVE SMOOTH",
"498 -8 OFFCURVE",
"548 36 OFFCURVE",
"557 111 CURVE",
"636 111 LINE",
"554 222 LINE",
"554 159 OFFCURVE",
"526 128 OFFCURVE",
"428 128 CURVE",
"188 128 LINE",
"200 116 LINE",
"200 492 LINE",
"200 574 OFFCURVE",
"251 602 OFFCURVE",
"337 603 CURVE",
"562 603 LINE",
"550 606 LINE",
"550 522 LINE",
"679 522 LINE",
"679 653 OFFCURVE",
"577 740 OFFCURVE",
"403 740 CURVE",
"188 740 OFFCURVE",
"65 612 OFFCURVE",
"65 363 CURVE"
);
},
{
closed = 1;
nodes = (
"683 403 LINE",
"377 403 LINE",
"377 301 LINE",
"377 301 OFFCURVE",
"554 301 OFFCURVE",
"554 301 CURVE",
"554 301 OFFCURVE",
"554 159 OFFCURVE",
"554 159 CURVE",
"574 119 LINE",
"574 0 LINE",
"683 0 LINE"
);
}
);
userData = {
com.schriftgestaltung.Glyphs.lastChange = "2021-08-31 08:38:01 +0000";
};
width = 748;
}
);
leftMetricsKey = O;
unicode = 0047;
},
{
color = 9;
glyphname = H;
lastChange = "2021-09-01 09:04:36 +0000";
layers = (
{
background = {
paths = (
{
closed = 0;
nodes = (
"524 250 LINE",
"522 281 OFFCURVE",
"505 308 OFFCURVE",
"469 308 CURVE"
);
}
);
};
layerId = "6366B642-BFD9-498E-A5DF-39975F9AC1A1";
paths = (
{
closed = 1;
nodes = (
"197 305 LINE",
"469 305 LINE",
"505 305 OFFCURVE",
"524 287 OFFCURVE",
"524 257 CURVE",
"524 424 LINE",
"252 424 LINE",
"216 424 OFFCURVE",
"197 441 OFFCURVE",
"197 472 CURVE"
);
},
{
closed = 1;
nodes = (
"73 730 LINE",
"73 0 LINE",
"197 0 LINE",
"197 730 LINE"
);
},
{
closed = 1;
nodes = (
"524 730 LINE",
"524 0 LINE",
"648 0 LINE",
"648 730 LINE"
);
}
);
userData = {
com.schriftgestaltung.Glyphs.lastChange = "2021-08-31 08:45:00 +0000";
};
width = 721;
}
);
leftMetricsKey = H;
unicode = 0048;
},
{
color = 4;
glyphname = I;
lastChange = "2021-09-01 09:03:53 +0000";
layers = (
{
background = {
paths = (
{
closed = 0;
nodes = (
"258 545 LINE",
"256 576 OFFCURVE",
"239 603 OFFCURVE",
"203 603 CURVE"
);
}
);
};
layerId = "6366B642-BFD9-498E-A5DF-39975F9AC1A1";
paths = (
{
closed = 1;
nodes = (
"257 730 LINE",
"257 0 LINE",
"381 0 LINE",
"381 730 LINE"
);
},
{
closed = 1;
nodes = (
"202 611 LINE SMOOTH",
"242 611 OFFCURVE",
"257 593 OFFCURVE",
"257 556 CURVE",
"257 730 LINE",
"70 730 LINE",
"70 611 LINE"
);
},
{
closed = 1;
nodes = (
"568 611 LINE",
"568 730 LINE",
"381 730 LINE",
"381 611 LINE"
);
},
{
closed = 1;
nodes = (
"436 119 LINE SMOOTH",
"397 119 OFFCURVE",
"381 145 OFFCURVE",
"381 174 CURVE",
"381 0 LINE",
"568 0 LINE",
"568 119 LINE"
);
},
{
closed = 1;
nodes = (
"70 0 LINE",
"257 0 LINE",
"257 119 LINE",
"70 119 LINE"
);
}
);
userData = {
com.schriftgestaltung.Glyphs.lastChange = "2021-08-31 11:45:58 +0000";
};
width = 638;
}
);
unicode = 0049;
},
{
color = 9;
glyphname = L;
lastChange = "2021-09-01 09:04:21 +0000";
layers = (
{
layerId = "6366B642-BFD9-498E-A5DF-39975F9AC1A1";
paths = (
{
closed = 1;
nodes = (
"197 730 LINE",
"73 730 LINE",
"73 0 LINE",
"197 0 LINE"
);
},
{
closed = 1;
nodes = (
"252 119 LINE SMOOTH",
"220 119 OFFCURVE",
"197 142 OFFCURVE",
"197 174 CURVE",
"197 0 LINE",
"554 0 LINE",
"554 119 LINE"
);
}
);
userData = {
com.schriftgestaltung.Glyphs.lastChange = "2021-08-31 08:45:00 +0000";
};
width = 594;
}
);
leftMetricsKey = H;
unicode = 004C;
},
{
color = 9;
glyphname = N;
lastChange = "2021-09-01 09:05:39 +0000";
layers = (
{
layerId = "6366B642-BFD9-498E-A5DF-39975F9AC1A1";
paths = (
{
closed = 1;
nodes = (
"196 0 LINE",
"198 593 LINE",
"218 593 LINE",
"467 0 LINE",
"684 0 LINE",
"684 730 LINE",
"560 730 LINE",
"560 138 LINE",
"540 138 LINE",
"293 730 LINE",
"73 730 LINE",
"73 0 LINE"
);
}
);
userData = {
com.schriftgestaltung.Glyphs.lastChange = "2021-08-31 08:38:01 +0000";
};
width = 757;
}
);
leftMetricsKey = H;
rightMetricsKey = H;
unicode = 004E;
},
{
color = 9;
glyphname = O;
layers = (
{
layerId = "6366B642-BFD9-498E-A5DF-39975F9AC1A1";
paths = (
{
closed = 1;
nodes = (
"621 -10 OFFCURVE",
"728 118 OFFCURVE",
"728 365 CURVE SMOOTH",
"728 612 OFFCURVE",
"651 740 OFFCURVE",
"397 740 CURVE SMOOTH",
"188 740 OFFCURVE",
"65 612 OFFCURVE",
"65 365 CURVE SMOOTH",
"65 118 OFFCURVE",
"128 -10 OFFCURVE",
"397 -10 CURVE SMOOTH"
);
},
{
closed = 1;
nodes = (
"197 455 LINE SMOOTH",
"197 562 OFFCURVE",
"244 603 OFFCURVE",
"364 603 CURVE SMOOTH",
"597 603 LINE",
"597 276 LINE SMOOTH",
"597 169 OFFCURVE",
"550 128 OFFCURVE",
"430 128 CURVE SMOOTH",
"197 128 LINE"
);
}
);
userData = {
com.schriftgestaltung.Glyphs.lastChange = "2021-08-31 08:40:33 +0000";
};
width = 794;
}
);
unicode = 004F;
},
{
color = 9;
glyphname = P;
lastChange = "2021-09-01 09:42:22 +0000";
layers = (
{
background = {
components = (
{
name = G;
transform = "{1, 0, 0, 1, 0, 7}";
}
);
};
layerId = "6366B642-BFD9-498E-A5DF-39975F9AC1A1";
paths = (
{
closed = 1;
nodes = (
"197 611 LINE",
"467 611 LINE",
"467 488 LINE SMOOTH",
"467 396 OFFCURVE",
"450 360 OFFCURVE",
"333 360 CURVE SMOOTH",
"179 360 LINE",
"179 242 LINE",
"334 242 LINE SMOOTH",
"508 242 OFFCURVE",
"598 317 OFFCURVE",
"598 486 CURVE SMOOTH",
"598 645 OFFCURVE",
"559 730 OFFCURVE",
"393 730 CURVE SMOOTH",
"73 730 LINE",
"73 0 LINE",
"197 0 LINE"
);
}
);
userData = {
com.schriftgestaltung.Glyphs.lastChange = "2021-08-31 08:38:49 +0000";
};
width = 653;
}
);
leftMetricsKey = H;
unicode = 0050;
},
{
color = 5;
glyphname = Q;
lastChange = "2021-09-01 08:44:25 +0000";
layers = (
{
components = (
{
name = O;
}
);
layerId = "6366B642-BFD9-498E-A5DF-39975F9AC1A1";
paths = (
{
closed = 1;
nodes = (
"321 231 LINE",
"555 -103 LINE",
"654 -34 LINE",
"420 300 LINE"
);
}
);
userData = {
com.schriftgestaltung.Glyphs.lastChange = "2021-08-31 11:47:12 +0000";
};
width = 794;
}
);
unicode = 0051;
},
{
color = 4;
glyphname = T;
lastChange = "2021-09-01 09:42:37 +0000";
layers = (
{
layerId = "6366B642-BFD9-498E-A5DF-39975F9AC1A1";
paths = (
{
closed = 1;
nodes = (
"277 0 LINE",
"401 0 LINE",
"401 730 LINE",
"277 730 LINE"
);
},
{
closed = 1;
nodes = (
"628 730 LINE",
"401 730 LINE",
"401 556 LINE",
"401 585 OFFCURVE",
"417 611 OFFCURVE",
"456 611 CURVE SMOOTH",
"628 611 LINE"
);
},
{
closed = 1;
nodes = (
"277 730 LINE",
"50 730 LINE",
"50 611 LINE",
"277 611 LINE"
);
}
);
userData = {
com.schriftgestaltung.Glyphs.lastChange = "2021-08-31 11:45:58 +0000";
};
width = 678;
}
);
unicode = 0054;
},
{
color = 4;
glyphname = U;
lastChange = "2021-09-01 09:43:31 +0000";
layers = (
{
background = {
paths = (
{
closed = 1;
nodes = (
"506 276 LINE SMOOTH",
"506 169 OFFCURVE",
"459 128 OFFCURVE",
"339 128 CURVE SMOOTH",
"207 128 LINE",
"207 730 LINE",
"75 730 LINE",
"75 729 OFFCURVE",
"75 365 OFFCURVE",
"75 365 CURVE SMOOTH",
"75 118 OFFCURVE",
"138 -10 OFFCURVE",
"367 -10 CURVE SMOOTH",
"530 -10 OFFCURVE",
"637 118 OFFCURVE",
"637 365 CURVE SMOOTH",
"637 365 OFFCURVE",
"637 729 OFFCURVE",
"637 730 CURVE",
"506 730 LINE"
);
}
);
};
layerId = "6366B642-BFD9-498E-A5DF-39975F9AC1A1";
paths = (
{
closed = 1;
nodes = (
"515 730 LINE",
"517 221 LINE SMOOTH",
"517 155 OFFCURVE",
"502 128 OFFCURVE",
"436 128 CURVE SMOOTH",
"197 128 LINE",
"197 730 LINE",
"78 730 LINE",
"78 259 LINE SMOOTH",
"78 70 OFFCURVE",
"149 -10 OFFCURVE",
"359 -10 CURVE SMOOTH",
"555 -10 OFFCURVE",
"636 85 OFFCURVE",
"636 253 CURVE SMOOTH",
"636 730 LINE"
);
}
);
userData = {
com.schriftgestaltung.Glyphs.lastChange = "2021-08-31 11:45:58 +0000";
};
width = 714;
}
);
unicode = 0055;
},
{
color = 4;
glyphname = V;
lastChange = "2021-09-01 08:58:54 +0000";
layers = (
{
layerId = "6366B642-BFD9-498E-A5DF-39975F9AC1A1";
paths = (
{
closed = 1;
nodes = (
"186 0 LINE",
"403 0 LINE",
"575 730 LINE",
"442 730 LINE",
"309 113 LINE",
"285 113 LINE",
"148 730 LINE",
"15 730 LINE"
);
}
);
userData = {
com.schriftgestaltung.Glyphs.lastChange = "2021-08-31 11:45:58 +0000";
};
width = 590;
}
);
unicode = 0056;
},
{
glyphname = B.ss01;
lastChange = "2021-09-01 09:44:06 +0000";
layers = (
{
layerId = "6366B642-BFD9-498E-A5DF-39975F9AC1A1";
paths = (
{
closed = 1;
nodes = (
"192 0 LINE",
"192 730 LINE",
"73 730 LINE",
"73 0 LINE"
);
},
{
closed = 1;
nodes = (
"480 411 LINE",
"568 415 OFFCURVE",
"579 468 OFFCURVE",
"579 555 CURVE SMOOTH",
"579 572 LINE SMOOTH",
"579 663 OFFCURVE",
"557 730 OFFCURVE",
"385 730 CURVE SMOOTH",
"148 730 LINE",
"148 609 LINE",
"455 609 LINE",
"455 524 LINE SMOOTH",
"455 452 OFFCURVE",
"433 419 OFFCURVE",
"318 419 CURVE SMOOTH",
"119 419 LINE",
"119 313 LINE",
"480 312 LINE",
"480 224 LINE SMOOTH",
"480 157 OFFCURVE",
"458 121 OFFCURVE",
"346 121 CURVE SMOOTH",
"139 121 LINE",
"139 0 LINE",
"361 0 LINE SMOOTH",
"537 0 OFFCURVE",
"604 55 OFFCURVE",
"604 201 CURVE",
"603 274 LINE SMOOTH",
"602 382 OFFCURVE",
"547 398 OFFCURVE",
"480 396 CURVE"
);
}
);
userData = {
com.schriftgestaltung.Glyphs.lastChange = "2021-08-31 08:44:48 +0000";
};
width = 639;
}
);
leftMetricsKey = H;
},
{
color = 9;
glyphname = a;
layers = (
{
background = {
paths = (
{
closed = 1;
nodes = (
"504 416 OFFCURVE",
"408 510 OFFCURVE",
"271 510 CURVE",
"192 510 OFFCURVE",
"134 501 OFFCURVE",
"73 478 CURVE",
"73 395 LINE",
"395 395 LINE",
"395 288 LINE",
"393 0 LINE",
"504 0 LINE",
"504 282 LINE"
);
},
{
closed = 1;
nodes = (
"487 220 OFFCURVE",
"489 231 OFFCURVE",
"489 247 CURVE",
"483 244 LINE",
"483 295 LINE",
"262 295 LINE",
"134 295 OFFCURVE",
"55 267 OFFCURVE",
"55 152 CURVE",
"55 37 OFFCURVE",
"118 -10 OFFCURVE",
"215 -10 CURVE",
"319 -10 OFFCURVE",
"458 68 OFFCURVE",
"483 199 CURVE"
);
},
{
closed = 1;
nodes = (
"149 148 LINE SMOOTH",
"149 185 OFFCURVE",
"176 210 OFFCURVE",
"238 210 CURVE SMOOTH",
"395 210 LINE",
"395 137 OFFCURVE",
"364 105 OFFCURVE",
"294 105 CURVE SMOOTH",
"149 105 LINE"
);
},
{
closed = 0;
nodes = (
"46 204 LINE",
"46 284 OFFCURVE",
"109 295 OFFCURVE",
"183 295 CURVE"
);
}
);
};
layerId = "6366B642-BFD9-498E-A5DF-39975F9AC1A1";
paths = (
{
closed = 1;
nodes = (
"508 255 LINE",
"508 349 LINE SMOOTH",
"508 465 OFFCURVE",
"437 510 OFFCURVE",
"276 510 CURVE SMOOTH",
"207 510 OFFCURVE",
"144 501 OFFCURVE",
"82 478 CURVE",
"82 395 LINE",
"394 395 LINE",
"395 255 LINE"
);
},
{
closed = 1;
nodes = (
"508 0 LINE",
"508 255 LINE",
"395 255 LINE",
"395 175 LINE",
"409 112 LINE",
"410 0 LINE"
);
},
{
closed = 1;
nodes = (
"45 155 CURVE SMOOTH",
"45 67 OFFCURVE",
"86 -10 OFFCURVE",
"217 -10 CURVE SMOOTH",
"322 -10 OFFCURVE",
"374 39 OFFCURVE",
"394 112 CURVE",
"468 112 LINE",
"395 191 LINE",
"395 110 OFFCURVE",
"334 99 OFFCURVE",
"258 99 CURVE SMOOTH",
"154 99 LINE",
"153 206 LINE",
"414 206 LINE",
"414 302 LINE",
"232 302 LINE SMOOTH",
"99 302 OFFCURVE",
"45 257 OFFCURVE"
);
}
);
userData = {
com.schriftgestaltung.Glyphs.lastChange = "2021-08-31 08:38:01 +0000";
};
width = 577;
}
);
rightMetricsKey = n;
unicode = 0061;
},
{
color = 9;
glyphname = b;
layers = (
{
background = {
components = (
{
name = o;
transform = "{1, 0, 0, 1, 29, 0}";
}
);
};
layerId = "6366B642-BFD9-498E-A5DF-39975F9AC1A1";
paths = (
{
closed = 1;
nodes = (
"74 0 LINE",
"168 0 LINE",
"178 89 LINE",
"187 105 LINE",
"187 318 LINE",
"181 402 LINE",
"181 780 LINE",
"74 780 LINE"
);
},
{
closed = 1;
nodes = (
"139 60 LINE",
"164 60 LINE",
"189 21 OFFCURVE",
"258 -10 OFFCURVE",
"322 -10 CURVE SMOOTH",
"501 -10 OFFCURVE",
"571 108 OFFCURVE",
"571 250 CURVE",
"571 297 LINE",
"571 427 OFFCURVE",
"502 510 OFFCURVE",
"388 510 CURVE",
"353 510 LINE",
"272 510 OFFCURVE",
"216 461 OFFCURVE",
"196 402 CURVE",
"181 402 LINE",
"187 318 LINE",
"187 369 OFFCURVE",
"241 392 OFFCURVE",
"291 392 CURVE SMOOTH",
"455 392 LINE",
"455 220 LINE SMOOTH",
"455 135 OFFCURVE",
"405 107 OFFCURVE",
"344 107 CURVE SMOOTH",
"154 107 LINE"
);
}
);
userData = {
com.schriftgestaltung.Glyphs.lastChange = "2021-08-31 08:38:01 +0000";
};
width = 617;
}
);
leftMetricsKey = l;
rightMetricsKey = o;
unicode = 0062;
},
{
color = 9;
glyphname = c;
layers = (
{
background = {
components = (
{
name = e;
}
);
};
layerId = "6366B642-BFD9-498E-A5DF-39975F9AC1A1";
paths = (
{
closed = 1;
nodes = (
"438 3 OFFCURVE",
"368 -10 OFFCURVE",
"301 -10 CURVE SMOOTH",
"127 -10 OFFCURVE",
"46 52 OFFCURVE",
"46 248 CURVE SMOOTH",
"46 419 OFFCURVE",
"151 510 OFFCURVE",
"302 510 CURVE SMOOTH",
"440 510 OFFCURVE",
"518 434 OFFCURVE",
"518 303 CURVE",
"395 303 LINE",
"395 388 LINE",
"265 388 LINE SMOOTH",
"199 388 OFFCURVE",
"169 361 OFFCURVE",
"169 297 CURVE SMOOTH",
"169 112 LINE",
"471 112 LINE",
"476 112 LINE",
"476 31 LINE"
);
}
);
userData = {
com.schriftgestaltung.Glyphs.lastChange = "2021-08-31 08:38:01 +0000";
};
width = 553;
}
);
leftMetricsKey = o;
unicode = 0063;
},
{
color = 9;
glyphname = d;
layers = (
{
background = {
components = (
{
name = n;
transform = "{1, 0, 0, 1, -17, 0}";
}
);
};
layerId = "6366B642-BFD9-498E-A5DF-39975F9AC1A1";
paths = (
{
closed = 1;
nodes = (
"410 780 LINE",
"410 155 LINE",
"414 112 LINE",
"414 0 LINE",
"526 0 LINE",
"526 780 LINE"
);
},
{
closed = 1;
nodes = (
"161 369 OFFCURVE",
"215 392 OFFCURVE",
"265 392 CURVE",
"410 392 LINE",
"410 314 LINE",
"476 249 LINE",
"476 399 OFFCURVE",
"426 510 OFFCURVE",
"270 510 CURVE",
"114 510 OFFCURVE",
"46 390 OFFCURVE",
"46 267 CURVE",
"46 205 LINE",
"46 77 OFFCURVE",
"115 -10 OFFCURVE",
"230 -10 CURVE",
"239 -10 LINE",
"331 -3 OFFCURVE",
"380 38 OFFCURVE",
"398 99 CURVE",
"472 99 LINE",
"410 199 LINE",
"410 118 OFFCURVE",
"346 106 OFFCURVE",
"269 107 CURVE",
"161 107 LINE",
"161 318 LINE SMOOTH"
);
}
);
userData = {
com.schriftgestaltung.Glyphs.lastChange = "2021-08-31 08:38:01 +0000";
};
width = 600;
}
);
leftMetricsKey = o;
unicode = 0064;
},
{
color = 9;
glyphname = e;
layers = (
{
background = {
components = (
{
name = o;
transform = "{1, 0, 0, 1, -6, 0}";
}
);
};
guideLines = (
{
angle = 180;
position = "{288, 294}";
}
);
layerId = "6366B642-BFD9-498E-A5DF-39975F9AC1A1";
paths = (
{
closed = 1;
nodes = (
"60 199 LINE",
"514 199 LINE",
"515 294 LINE",
"60 294 LINE"
);
},
{
closed = 1;
nodes = (
"476 107 LINE",
"158 107 LINE",
"158 304 LINE SMOOTH",
"158 365 OFFCURVE",
"206 393 OFFCURVE",
"255 393 CURVE SMOOTH",
"415 393 LINE",
"415 275 LINE",
"514 199 LINE",
"516 209 OFFCURVE",
"518 236 OFFCURVE",
"519 251 CURVE SMOOTH",
"528 414 OFFCURVE",
"462 510 OFFCURVE",
"294 510 CURVE SMOOTH",
"147 510 OFFCURVE",
"46 414 OFFCURVE",
"46 251 CURVE SMOOTH",
"46 44 OFFCURVE",
"139 -10 OFFCURVE",
"294 -10 CURVE SMOOTH",
"367 -10 OFFCURVE",
"432 2 OFFCURVE",
"476 30 CURVE"
);
}
);
userData = {
com.schriftgestaltung.Glyphs.lastChange = "2021-08-31 08:58:03 +0000";
};
width = 564;
}
);
leftMetricsKey = o;
unicode = 0065;
},
{
color = 9;
glyphname = f;
layers = (
{
background = {
components = (
{
name = n;
transform = "{-1, 0, 0, 1, 658, 270}";
}
);
};
layerId = "6366B642-BFD9-498E-A5DF-39975F9AC1A1";
paths = (
{
closed = 1;
nodes = (
"40 405 LINE",
"359 405 LINE",
"359 500 LINE",
"40 500 LINE"
);
},
{
closed = 1;
nodes = (
"232 0 LINE",
"232 658 LINE",
"384 658 LINE",
"384 780 LINE",
"294 780 LINE SMOOTH",
"172 780 OFFCURVE",
"121 703 OFFCURVE",
"121 570 CURVE SMOOTH",
"121 0 LINE"
);
}
);
userData = {
com.schriftgestaltung.Glyphs.lastChange = "2021-08-31 08:38:01 +0000";
};
width = 379;
}
);
unicode = 0066;
},
{
color = 9;
glyphname = g;
lastChange = "2021-09-01 09:51:11 +0000";
layers = (
{
background = {
paths = (
{
closed = 1;
nodes = (
"162 296 LINE SMOOTH",
"162 347 OFFCURVE",
"183 388 OFFCURVE",
"269 388 CURVE SMOOTH",
"400 388 LINE",
"401 0 LINE",
"514 0 LINE",
"514 730 LINE",
"416 730 LINE",
"415 388 LINE",
"400 388 LINE",
"400 450 OFFCURVE",
"372 510 OFFCURVE",
"267 510 CURVE SMOOTH",
"223 510 LINE SMOOTH",
"102 510 OFFCURVE",
"51 433 OFFCURVE",
"51 299 CURVE SMOOTH",
"51 0 LINE",
"162 0 LINE"
);
}
);
};
layerId = "6366B642-BFD9-498E-A5DF-39975F9AC1A1";
paths = (
{
closed = 1;
nodes = (
"309 176 LINE SMOOTH",
"448 176 OFFCURVE",
"514 216 OFFCURVE",
"514 343 CURVE SMOOTH",
"514 593 LINE",
"415 593 LINE",
"415 359 LINE",
"438 438 LINE",
"400 438 LINE",
"400 490 OFFCURVE",
"361 510 OFFCURVE",
"298 510 CURVE SMOOTH",
"255 510 LINE SMOOTH",
"118 510 OFFCURVE",
"49 482 OFFCURVE",
"49 352 CURVE SMOOTH",
"49 218 OFFCURVE",
"142 194 OFFCURVE",
"271 194 CURVE",
"271 176 LINE"
);
},
{
closed = 1;
nodes = (
"515 0 LINE",
"515 108 LINE",
"171 108 LINE",
"171 174 OFFCURVE",
"171 176 OFFCURVE",
"223 176 CURVE SMOOTH",
"271 176 LINE",
"271 221 LINE",
"168 221 LINE",
"168 187 LINE",
"95 187 OFFCURVE",
"46 156 OFFCURVE",
"46 100 CURVE SMOOTH",
"46 38 OFFCURVE",
"83 0 OFFCURVE",
"153 0 CURVE SMOOTH"
);
},
{
closed = 1;
nodes = (
"162 360 LINE SMOOTH",
"162 389 OFFCURVE",
"178 405 OFFCURVE",
"207 405 CURVE SMOOTH",
"396 405 LINE",
"396 325 LINE SMOOTH",
"396 296 OFFCURVE",
"380 280 OFFCURVE",
"351 280 CURVE SMOOTH",
"162 280 LINE"
);
}
);
userData = {
com.schriftgestaltung.Glyphs.lastChange = "2021-08-31 08:57:26 +0000";
};
width = 575;
}
);
leftMetricsKey = o;
unicode = 0067;
},
{
color = 9;
glyphname = h;
layers = (
{
layerId = "6366B642-BFD9-498E-A5DF-39975F9AC1A1";
paths = (
{
closed = 1;
nodes = (
"74 0 LINE",
"187 0 LINE",
"187 325 LINE",
"173 388 LINE",
"172 730 LINE",
"74 730 LINE"
);
},
{
closed = 1;
nodes = (
"426 0 LINE",
"537 0 LINE",
"537 299 LINE SMOOTH",
"537 433 OFFCURVE",
"486 510 OFFCURVE",
"365 510 CURVE SMOOTH",
"260 510 OFFCURVE",
"208 461 OFFCURVE",
"188 388 CURVE",
"114 388 LINE",
"187 296 LINE",
"187 377 OFFCURVE",
"248 388 OFFCURVE",
"324 388 CURVE SMOOTH",
"425 388 LINE",
"426 289 LINE"
);
}
);
userData = {
com.schriftgestaltung.Glyphs.lastChange = "2021-08-31 08:38:01 +0000";
};
width = 606;
}
);
unicode = 0068;
},
{
color = 9;
glyphname = i;
layers = (
{
background = {
paths = (
{
closed = 1;
nodes = (
"75 0 LINE",
"188 0 LINE",
"188 500 LINE",
"75 500 LINE"
);
},
{
closed = 1;
nodes = (
"181 585 OFFCURVE",
"211 607 OFFCURVE",
"211 658 CURVE SMOOTH",
"211 714 OFFCURVE",
"181 738 OFFCURVE",
"135 738 CURVE SMOOTH",
"89 738 OFFCURVE",
"59 714 OFFCURVE",
"59 658 CURVE SMOOTH",
"59 607 OFFCURVE",
"89 585 OFFCURVE",
"135 585 CURVE SMOOTH"
);
}
);
};
layerId = "6366B642-BFD9-498E-A5DF-39975F9AC1A1";
paths = (
{
closed = 1;
nodes = (
"75 0 LINE",
"187 0 LINE",
"187 500 LINE",
"75 500 LINE"
);
},
{
closed = 1;
nodes = (
"75 627 LINE",
"188 627 LINE",
"188 740 LINE",
"75 740 LINE"
);
}
);
userData = {
com.schriftgestaltung.Glyphs.lastChange = "2021-08-31 11:47:58 +0000";
};
width = 263;
}
);
leftMetricsKey = n;
unicode = 0069;
},
{
color = 9;
glyphname = l;
layers = (
{
layerId = "6366B642-BFD9-498E-A5DF-39975F9AC1A1";
paths = (
{
closed = 1;
nodes = (
"74 780 LINE",
"74 0 LINE",
"186 0 LINE",
"186 780 LINE"
);
}
);
userData = {
com.schriftgestaltung.Glyphs.lastChange = "2021-08-31 11:48:13 +0000";
};
width = 260;
}
);
unicode = 006C;
},
{
color = 9;
glyphname = m;
lastChange = "2021-09-01 09:44:06 +0000";
layers = (
{
background = {
components = (
{
name = n;
transform = "{1, 0, 0, 1, 1, 0}";
}
);
};
layerId = "6366B642-BFD9-498E-A5DF-39975F9AC1A1";
paths = (
{
closed = 1;
nodes = (
"75 0 LINE",
"188 0 LINE",
"188 325 LINE",
"174 388 LINE",
"173 500 LINE",
"75 500 LINE"
);
},
{
closed = 1;
nodes = (
"398 3 LINE",
"509 3 LINE",
"509 289 LINE",
"509 421 OFFCURVE",
"456 507 OFFCURVE",
"343 507 CURVE",
"257 507 OFFCURVE",
"206 459 OFFCURVE",
"187 387 CURVE",
"115 387 LINE",
"186 296 LINE",
"186 376 OFFCURVE",
"249 388 OFFCURVE",
"323 388 CURVE",
"408 388 LINE",
"397 399 LINE",
"398 289 LINE"
);
},
{
closed = 1;
nodes = (
"720 3 LINE",
"831 3 LINE",
"831 289 LINE SMOOTH",
"831 421 OFFCURVE",
"778 507 OFFCURVE",
"665 507 CURVE SMOOTH",
"579 507 OFFCURVE",
"528 459 OFFCURVE",
"509 387 CURVE",
"437 387 LINE",
"509 296 LINE",
"509 376 OFFCURVE",
"571 388 OFFCURVE",
"645 388 CURVE SMOOTH",
"730 388 LINE",
"719 399 LINE",
"720 289 LINE"
);
}
);
userData = {
com.schriftgestaltung.Glyphs.lastChange = "2021-08-31 08:38:01 +0000";
};
width = 900;
}
);
leftMetricsKey = n;
rightMetricsKey = n;
unicode = 006D;
},
{
color = 9;
glyphname = n;
lastChange = "2021-09-01 09:51:35 +0000";
layers = (
{
anchors = (
{
name = bottom;
position = "{303, 0}";
},
{
name = top;
position = "{287, 500}";
}
);
layerId = "6366B642-BFD9-498E-A5DF-39975F9AC1A1";
paths = (
{
closed = 1;
nodes = (
"75 0 LINE",
"187 0 LINE",
"187 325 LINE",
"173 388 LINE",
"172 500 LINE",
"75 500 LINE"
);
},
{
closed = 1;
nodes = (
"426 0 LINE",
"537 0 LINE",
"537 299 LINE SMOOTH",
"537 433 OFFCURVE",
"486 510 OFFCURVE",
"365 510 CURVE SMOOTH",
"260 510 OFFCURVE",
"208 461 OFFCURVE",
"188 388 CURVE",
"114 388 LINE",
"187 296 LINE",
"187 377 OFFCURVE",
"248 388 OFFCURVE",
"324 388 CURVE SMOOTH",
"425 388 LINE",
"426 289 LINE"
);
}
);
userData = {
com.schriftgestaltung.Glyphs.lastChange = "2021-08-31 11:51:28 +0000";
};
width = 606;
}
);
unicode = 006E;
},
{
color = 9;
glyphname = o;
layers = (
{
anchors = (
{
name = bottom;
position = "{299, -12}";
},
{
name = center;
position = "{294, 250}";
},
{
name = ogonek;
position = "{527, -1}";
},
{
name = top;
position = "{293, 511}";
},
{
name = topright;
position = "{550, 500}";
}
);
background = {
paths = (
{
closed = 1;
nodes = (
"480 -11 OFFCURVE",
"542 106 OFFCURVE",
"542 252 CURVE SMOOTH",
"542 397 OFFCURVE",
"480 514 OFFCURVE",
"295 514 CURVE SMOOTH",
"109 514 OFFCURVE",
"46 397 OFFCURVE",
"46 252 CURVE SMOOTH",
"46 106 OFFCURVE",
"109 -11 OFFCURVE",
"295 -11 CURVE SMOOTH"
);
},
{
closed = 1;
nodes = (
"165 303 LINE SMOOTH",
"165 367 OFFCURVE",
"212 395 OFFCURVE",
"278 395 CURVE SMOOTH",
"423 395 LINE",
"423 223 LINE SMOOTH",
"423 137 OFFCURVE",
"373 109 OFFCURVE",
"310 109 CURVE SMOOTH",
"165 109 LINE"
);
}
);
};
layerId = "6366B642-BFD9-498E-A5DF-39975F9AC1A1";
paths = (
{
closed = 1;
nodes = (
"448 -10 OFFCURVE",
"542 86 OFFCURVE",
"542 250 CURVE SMOOTH",
"542 414 OFFCURVE",
"478 510 OFFCURVE",
"294 510 CURVE SMOOTH",
"140 510 OFFCURVE",
"46 414 OFFCURVE",
"46 250 CURVE SMOOTH",
"46 46 OFFCURVE",
"140 -10 OFFCURVE",
"294 -10 CURVE SMOOTH"
);
},
{
closed = 1;
nodes = (
"162 301 LINE SMOOTH",
"162 365 OFFCURVE",
"209 393 OFFCURVE",
"275 393 CURVE SMOOTH",
"426 393 LINE",
"426 221 LINE SMOOTH",
"426 135 OFFCURVE",
"376 107 OFFCURVE",
"313 107 CURVE SMOOTH",
"162 107 LINE"
);
}
);
userData = {
com.schriftgestaltung.Glyphs.lastChange = "2021-08-31 08:38:01 +0000";
};
width = 588;
}
);
unicode = 006F;
},
{
color = 9;
glyphname = p;
layers = (
{
layerId = "6366B642-BFD9-498E-A5DF-39975F9AC1A1";
paths = (
{
closed = 1;
nodes = (
"74 -190 LINE",
"168 -190 LINE",
"168 89 LINE",
"187 105 LINE",
"187 318 LINE",
"181 402 LINE",
"181 500 LINE",
"74 500 LINE"
);
},
{
closed = 1;
nodes = (
"139 60 LINE",
"164 60 LINE",
"189 21 OFFCURVE",
"258 -10 OFFCURVE",
"322 -10 CURVE SMOOTH",
"485 -10 OFFCURVE",
"555 108 OFFCURVE",
"555 250 CURVE",
"555 297 LINE",
"555 427 OFFCURVE",
"486 510 OFFCURVE",
"372 510 CURVE",
"353 510 LINE",
"272 510 OFFCURVE",
"216 461 OFFCURVE",
"196 402 CURVE",
"181 402 LINE",
"187 318 LINE",
"187 369 OFFCURVE",
"241 392 OFFCURVE",
"291 392 CURVE SMOOTH",
"439 392 LINE",
"439 220 LINE SMOOTH",
"439 135 OFFCURVE",
"389 107 OFFCURVE",
"328 107 CURVE SMOOTH",
"154 107 LINE"
);
}
);
userData = {
com.schriftgestaltung.Glyphs.lastChange = "2021-08-31 08:38:01 +0000";
};
width = 601;
}
);
rightMetricsKey = o;
unicode = 0070;
},
{
color = 9;
glyphname = q;
layers = (
{
background = {
paths = (
{
closed = 1;
nodes = (
"528 500 LINE",
"441 500 LINE",
"441 432 LINE",
"419 428 LINE",
"419 209 LINE",
"425 94 LINE",
"425 -190 LINE",
"528 -190 LINE"
);
},
{
closed = 1;
nodes = (
"126 510 OFFCURVE",
"46 422 OFFCURVE",
"46 250 CURVE SMOOTH",
"46 59 OFFCURVE",
"126 -10 OFFCURVE",
"256 -10 CURVE SMOOTH",
"346 -10 OFFCURVE",
"390 27 OFFCURVE",
"410 94 CURVE",
"425 94 LINE",
"419 208 LINE",
"419 157 OFFCURVE",
"385 111 OFFCURVE",
"312 111 CURVE SMOOTH",
"155 111 LINE",
"155 281 LINE SMOOTH",
"155 364 OFFCURVE",
"185 388 OFFCURVE",
"263 388 CURVE SMOOTH",
"441 388 LINE",
"441 432 LINE",
"426 432 LINE",
"406 469 OFFCURVE",
"368 510 OFFCURVE",
"267 510 CURVE"
);
}
);
};
layerId = "6366B642-BFD9-498E-A5DF-39975F9AC1A1";
paths = (
{
closed = 1;
nodes = (
"410 500 LINE",
"410 155 LINE",
"414 112 LINE",
"414 -190 LINE",
"526 -190 LINE",
"526 500 LINE"
);
},
{
closed = 1;
nodes = (
"161 369 OFFCURVE",
"215 392 OFFCURVE",
"265 392 CURVE",
"410 392 LINE",
"410 314 LINE",
"476 249 LINE",
"476 399 OFFCURVE",
"426 510 OFFCURVE",
"270 510 CURVE",
"114 510 OFFCURVE",
"46 390 OFFCURVE",
"46 267 CURVE",
"46 205 LINE",
"46 77 OFFCURVE",
"115 -10 OFFCURVE",
"230 -10 CURVE",
"239 -10 LINE",
"331 -3 OFFCURVE",
"380 38 OFFCURVE",
"398 99 CURVE",
"472 99 LINE",
"410 199 LINE",
"410 118 OFFCURVE",
"346 106 OFFCURVE",
"269 107 CURVE",
"161 107 LINE",
"161 318 LINE SMOOTH"
);
}
);
userData = {
com.schriftgestaltung.Glyphs.lastChange = "2021-08-31 08:38:01 +0000";
};
width = 595;
}
);
leftMetricsKey = o;
unicode = 0071;
},
{
color = 9;
glyphname = r;
layers = (
{
background = {
components = (
{
name = n;
}
);
};
layerId = "6366B642-BFD9-498E-A5DF-39975F9AC1A1";
paths = (
{
closed = 1;
nodes = (
"74 0 LINE",
"188 0 LINE",
"188 325 LINE",
"173 388 LINE",
"173 500 LINE",
"74 500 LINE"
);
},
{
closed = 1;
nodes = (
"409 504 LINE",
"388 508 OFFCURVE",
"370 510 OFFCURVE",
"349 510 CURVE SMOOTH",
"260 510 OFFCURVE",
"208 461 OFFCURVE",
"188 388 CURVE",
"114 388 LINE",
"188 293 LINE",
"188 374 OFFCURVE",
"253 385 OFFCURVE",
"329 385 CURVE SMOOTH",
"409 385 LINE"
);
}
);
userData = {
com.schriftgestaltung.Glyphs.lastChange = "2021-08-31 08:38:01 +0000";
};
width = 439;
}
);
unicode = 0072;
},
{
color = 9;
glyphname = v;
layers = (
{
layerId = "6366B642-BFD9-498E-A5DF-39975F9AC1A1";
paths = (
{
closed = 1;
nodes = (
"181 0 LINE",
"335 0 LINE",
"511 500 LINE",
"396 500 LINE",
"275 138 LINE",
"251 138 LINE",
"126 500 LINE",
"8 500 LINE"
);
}
);
userData = {
com.schriftgestaltung.Glyphs.lastChange = "2021-08-31 08:38:01 +0000";
};
width = 521;
}
);
unicode = 0076;
},
{
color = 9;
glyphname = w;
layers = (
{
background = {
components = (
{
name = v;
transform = "{1, 0, 0, 1, -32, 0}";
}
);
paths = (
{
closed = 0;
nodes = (
"392 388 LINE",
"473 0 LINE",
"631 0 LINE",
"757 500 LINE",
"646 500 LINE",
"563 138 LINE",
"539 138 LINE",
"460 500 LINE"
);
}
);
};
layerId = "6366B642-BFD9-498E-A5DF-39975F9AC1A1";
paths = (
{
closed = 1;
nodes = (
"134 0 LINE",
"292 0 LINE",
"373 388 LINE",
"392 388 LINE",
"473 0 LINE",
"626 0 LINE",
"755 500 LINE",
"646 500 LINE",
"565 138 LINE",
"541 138 LINE",
"460 500 LINE",
"305 500 LINE",
"226 138 LINE",
"202 138 LINE",
"119 500 LINE",
"8 500 LINE"
);
}
);
userData = {
com.schriftgestaltung.Glyphs.lastChange = "2021-08-31 08:38:01 +0000";
};
width = 765;
}
);
leftMetricsKey = v;
rightMetricsKey = v;
unicode = 0077;
},
{
glyphname = acutecomb;
layers = (
{
anchors = (
{
name = _top;
position = "{-32, 500}";
},
{
name = top;
position = "{18, 785}";
}
);
background = {
paths = (
{
closed = 1;
nodes = (
"-62 566 LINE SMOOTH",
"-48 550 OFFCURVE",
"-32 552 OFFCURVE",
"-17 566 CURVE SMOOTH",
"26 605 LINE SMOOTH",
"77 651 OFFCURVE",
"117 675 OFFCURVE",
"129 688 CURVE",
"132 693 OFFCURVE",
"132 702 OFFCURVE",
"124 710 CURVE",
"59 778 LINE",
"48 785 OFFCURVE",
"39 786 OFFCURVE",
"35 783 CURVE",
"23 769 OFFCURVE",
"2 721 OFFCURVE",
"-46 673 CURVE SMOOTH",
"-53 666 OFFCURVE",
"-75 646 OFFCURVE",
"-85 637 CURVE",
"-99 622 OFFCURVE",
"-97 607 OFFCURVE",
"-84 592 CURVE SMOOTH"
);
}
);
};
layerId = "6366B642-BFD9-498E-A5DF-39975F9AC1A1";
paths = (
{
closed = 1;
nodes = (
"-46 549 LINE",
"138 695 LINE",
"52 785 LINE",
"-103 615 LINE"
);
}
);
userData = {
com.schriftgestaltung.Glyphs.lastChange = "2021-08-31 08:26:56 +0000";
};
width = 0;
}
);
unicode = 0301;
},
